<svg xmlns="http://www.w3.org/2000/svg" viewBox="0 0 680 322" width="680" height="322" role="img">
<title>woodada 강아지 캐릭터 레퍼런스</title>
<desc>귀여운 2.5등신 강아지 캐릭터의 기본(idle)·달리기(run)·우다다 폭주(zoomies) 세 포즈 시안. 머리·귀·눈·몸·다리·꼬리가 분리된 파츠 구조.</desc>

<rect x="20" y="18" width="200" height="252" rx="14" fill="#FBF6EE" stroke="#E5D9C5" stroke-width="1"/>
<rect x="240" y="18" width="200" height="252" rx="14" fill="#FBF6EE" stroke="#E5D9C5" stroke-width="1"/>
<rect x="460" y="18" width="200" height="252" rx="14" fill="#FBF6EE" stroke="#E5D9C5" stroke-width="1"/>

<g transform="translate(120,96)">
<path d="M28,72 Q52,58 46,40 Q44,52 30,64 Z" fill="#E89B4C" stroke="#B5702E" stroke-width="2.5" stroke-linejoin="round"/>
<ellipse cx="0" cy="76" rx="32" ry="29" fill="#F6D9A8" stroke="#B5702E" stroke-width="2.5"/>
<ellipse cx="0" cy="82" rx="19" ry="18" fill="#FCEAC8"/>
<ellipse cx="-14" cy="104" rx="9" ry="13" fill="#F6D9A8" stroke="#B5702E" stroke-width="2.5"/>
<ellipse cx="14" cy="104" rx="9" ry="13" fill="#F6D9A8" stroke="#B5702E" stroke-width="2.5"/>
<ellipse cx="-14" cy="114" rx="9" ry="5" fill="#FCEAC8"/>
<ellipse cx="14" cy="114" rx="9" ry="5" fill="#FCEAC8"/>
<path d="M-34,-20 C-56,-14 -54,28 -40,36 C-30,24 -30,4 -26,-14 Z" fill="#E89B4C" stroke="#B5702E" stroke-width="2.5" stroke-linejoin="round"/>
<path d="M34,-20 C56,-14 54,28 40,36 C30,24 30,4 26,-14 Z" fill="#E89B4C" stroke="#B5702E" stroke-width="2.5" stroke-linejoin="round"/>
<path d="M-4,-44 Q-1,-57 3,-46" fill="none" stroke="#B5702E" stroke-width="2.5" stroke-linecap="round"/>
<circle cx="0" cy="0" r="45" fill="#F6D9A8" stroke="#B5702E" stroke-width="2.5"/>
<ellipse cx="0" cy="17" rx="23" ry="17" fill="#FCEAC8"/>
<ellipse cx="-28" cy="13" rx="8" ry="5" fill="#F4A6A0"/>
<ellipse cx="28" cy="13" rx="8" ry="5" fill="#F4A6A0"/>
<circle cx="-17" cy="-3" r="9" fill="#2E2620"/>
<circle cx="17" cy="-3" r="9" fill="#2E2620"/>
<circle cx="-20" cy="-6" r="3" fill="#FFFFFF"/>
<circle cx="14" cy="-6" r="3" fill="#FFFFFF"/>
<ellipse cx="0" cy="9" rx="6" ry="4.5" fill="#5B3A24"/>
<path d="M0,13 Q-7,21 -13,16" fill="none" stroke="#5B3A24" stroke-width="1.8" stroke-linecap="round"/>
<path d="M0,13 Q7,21 13,16" fill="none" stroke="#5B3A24" stroke-width="1.8" stroke-linecap="round"/>
<ellipse cx="0" cy="21" rx="5" ry="6" fill="#EF8E8E"/>
</g>

<g transform="translate(340,96)">
<line x1="-78" y1="-8" x2="-52" y2="-8" stroke="#C9A36B" stroke-width="3" stroke-linecap="round"/>
<line x1="-82" y1="10" x2="-54" y2="10" stroke="#C9A36B" stroke-width="3" stroke-linecap="round"/>
<line x1="-76" y1="28" x2="-50" y2="28" stroke="#C9A36B" stroke-width="3" stroke-linecap="round"/>
<path d="M-40,-22 C-64,-30 -70,-2 -52,4 C-44,-6 -44,-14 -34,-18 Z" fill="#E89B4C" stroke="#B5702E" stroke-width="2.5" stroke-linejoin="round"/>
<g transform="rotate(-7)">
<ellipse cx="2" cy="78" rx="36" ry="28" fill="#F6D9A8" stroke="#B5702E" stroke-width="2.5"/>
<ellipse cx="6" cy="84" rx="22" ry="17" fill="#FCEAC8"/>
</g>
<ellipse cx="-26" cy="104" rx="8" ry="12" fill="#E89B4C" stroke="#B5702E" stroke-width="2.5" transform="rotate(20 -26 104)"/>
<ellipse cx="34" cy="104" rx="8" ry="12" fill="#F6D9A8" stroke="#B5702E" stroke-width="2.5" transform="rotate(-22 34 104)"/>
<ellipse cx="-6" cy="110" rx="8" ry="12" fill="#F6D9A8" stroke="#B5702E" stroke-width="2.5" transform="rotate(8 -6 110)"/>
<path d="M40,68 Q60,56 52,40 Q52,54 36,62 Z" fill="#E89B4C" stroke="#B5702E" stroke-width="2.5" stroke-linejoin="round"/>
<path d="M38,-20 C58,-12 56,28 42,34 C32,22 32,2 30,-14 Z" fill="#E89B4C" stroke="#B5702E" stroke-width="2.5" stroke-linejoin="round"/>
<circle cx="0" cy="0" r="44" fill="#F6D9A8" stroke="#B5702E" stroke-width="2.5"/>
<ellipse cx="6" cy="18" rx="22" ry="16" fill="#FCEAC8"/>
<ellipse cx="-24" cy="14" rx="7" ry="4.5" fill="#F4A6A0"/>
<ellipse cx="30" cy="14" rx="7" ry="4.5" fill="#F4A6A0"/>
<path d="M-22,-6 Q-16,-13 -10,-6" fill="none" stroke="#2E2620" stroke-width="3" stroke-linecap="round"/>
<path d="M10,-6 Q16,-13 22,-6" fill="none" stroke="#2E2620" stroke-width="3" stroke-linecap="round"/>
<ellipse cx="6" cy="10" rx="6" ry="4.5" fill="#5B3A24"/>
<path d="M-4,15 Q6,28 18,18" fill="none" stroke="#5B3A24" stroke-width="2" stroke-linecap="round"/>
<ellipse cx="8" cy="22" rx="6" ry="8" fill="#EF8E8E"/>
</g>

<g transform="translate(560,96)">
<line x1="-70" y1="-14" x2="-50" y2="-20" stroke="#C9A36B" stroke-width="3" stroke-linecap="round"/>
<line x1="70" y1="-14" x2="50" y2="-20" stroke="#C9A36B" stroke-width="3" stroke-linecap="round"/>
<path d="M-12,-50 Q-8,-62 -4,-50 Q0,-64 4,-50 Q8,-62 12,-50" fill="none" stroke="#B5702E" stroke-width="2.5" stroke-linecap="round" stroke-linejoin="round"/>
<path d="M28,70 Q54,64 56,46 Q48,58 30,62 Z" fill="#E89B4C" stroke="#B5702E" stroke-width="2.5" stroke-linejoin="round"/>
<g transform="rotate(6)">
<ellipse cx="0" cy="78" rx="33" ry="28" fill="#F6D9A8" stroke="#B5702E" stroke-width="2.5"/>
<ellipse cx="0" cy="84" rx="20" ry="17" fill="#FCEAC8"/>
</g>
<ellipse cx="-22" cy="106" rx="8" ry="12" fill="#F6D9A8" stroke="#B5702E" stroke-width="2.5" transform="rotate(-26 -22 106)"/>
<ellipse cx="22" cy="106" rx="8" ry="12" fill="#F6D9A8" stroke="#B5702E" stroke-width="2.5" transform="rotate(26 22 106)"/>
<ellipse cx="-44" cy="118" rx="9" ry="5" fill="#E8D3A8" opacity="0.85"/>
<ellipse cx="44" cy="118" rx="9" ry="5" fill="#E8D3A8" opacity="0.85"/>
<ellipse cx="-30" cy="124" rx="6" ry="3.5" fill="#E8D3A8" opacity="0.7"/>
<ellipse cx="32" cy="124" rx="6" ry="3.5" fill="#E8D3A8" opacity="0.7"/>
<path d="M-40,-18 C-60,-24 -58,18 -42,28 C-32,16 -32,0 -28,-14 Z" fill="#E89B4C" stroke="#B5702E" stroke-width="2.5" stroke-linejoin="round"/>
<path d="M40,-18 C60,-24 58,18 42,28 C32,16 32,0 28,-14 Z" fill="#E89B4C" stroke="#B5702E" stroke-width="2.5" stroke-linejoin="round"/>
<circle cx="0" cy="0" r="45" fill="#F6D9A8" stroke="#B5702E" stroke-width="2.5"/>
<ellipse cx="0" cy="18" rx="23" ry="17" fill="#FCEAC8"/>
<ellipse cx="-29" cy="14" rx="8" ry="5" fill="#F4A6A0"/>
<ellipse cx="29" cy="14" rx="8" ry="5" fill="#F4A6A0"/>
<g transform="translate(-17,-4)" fill="none" stroke="#2E2620" stroke-width="2.4" stroke-linecap="round"><path d="M5,0 A5,5 0 1,1 1,-4.7 A3,3 0 1,0 -1.8,2.3 A1.4,1.4 0 1,1 0.6,-0.6"/></g>
<g transform="translate(17,-4)" fill="none" stroke="#2E2620" stroke-width="2.4" stroke-linecap="round"><path d="M5,0 A5,5 0 1,1 1,-4.7 A3,3 0 1,0 -1.8,2.3 A1.4,1.4 0 1,1 0.6,-0.6"/></g>
<ellipse cx="0" cy="11" rx="6" ry="4.5" fill="#5B3A24"/>
<path d="M-13,16 Q0,22 13,16" fill="none" stroke="#5B3A24" stroke-width="2" stroke-linecap="round"/>
<path d="M-6,18 Q-8,34 0,36 Q8,34 6,18 Z" fill="#EF8E8E" stroke="#D96E6E" stroke-width="1.2"/>
<line x1="0" y1="22" x2="0" y2="33" stroke="#D96E6E" stroke-width="1.2"/>
</g>

<text x="120" y="293" text-anchor="middle" font-family="sans-serif" font-size="13" fill="#8A6A3A">기본 (idle)</text>
<text x="340" y="293" text-anchor="middle" font-family="sans-serif" font-size="13" fill="#8A6A3A">달리기 (run)</text>
<text x="560" y="293" text-anchor="middle" font-family="sans-serif" font-size="13" fill="#8A6A3A">우다다 (zoomies)</text>
</svg>
